<?xml version="1.0" encoding="iso-8859-1"?>
<!-- Generator: Adobe Illustrator 19.0.0, SVG Export Plug-In . SVG Version: 6.00 Build 0)  -->
<svg version="1.1" id="Layer_1" xmlns="http://www.w3.org/2000/svg" xmlns:xlink="http://www.w3.org/1999/xlink" x="0px" y="0px"
	 viewBox="0 0 341.301 341.301" style="enable-background:new 0 0 341.301 341.301;" xml:space="preserve">
<g>
	<g>
		<polygon points="105.943,3.988 105.969,3.963 92.733,0 96.696,13.235 83.461,9.272 87.424,22.508 74.189,18.545 78.152,31.78 
			64.916,27.817 68.879,41.052 55.644,37.089 59.607,50.325 46.372,46.362 50.335,59.597 37.099,55.634 41.062,68.869 
			27.827,64.906 31.79,78.141 18.555,74.179 22.518,87.414 9.283,83.451 13.245,96.686 0.01,92.723 3.973,105.958 52.142,154.127 
			154.112,52.157 		"/>
		<path d="M220.16,129.659c-0.041-0.143-0.128-0.271-0.169-0.415c0.046,0.154,0.077,0.307,0.123,0.461L220.16,129.659z"/>
		
			<rect x="99.576" y="204.797" transform="matrix(-0.7071 -0.7071 0.7071 -0.7071 30.6873 422.3084)" width="6.459" height="0.004"/>
		<rect x="189.994" y="91.264" transform="matrix(0.7071 0.7071 -0.7071 0.7071 121.1273 -109.8992)" width="6.459" height="0"/>
		<path d="M288.236,248.812c-19.512-19.512-43.397-37.207-59.09-47.334c-10.045-6.482-15.698-8.97-22.41-15.683
			c-6.712-6.712-4.132-23.04,3.369-30.546l-0.005-0.005l4.721-4.721c5.652-5.652,7.342-13.645,5.294-20.818l-90.424,90.424
			c7.173,2.043,15.171,0.358,20.818-5.294l4.721-4.721l0.005,0.005c7.506-7.506,23.834-10.086,30.546-3.374
			c6.712,6.712,9.201,12.37,15.683,22.41c10.127,15.693,27.822,39.578,47.334,59.09c38.676,38.677,78.863,61.204,89.754,50.314
			C349.44,327.675,326.912,287.493,288.236,248.812z M308.086,308.106c-3.686,3.686-9.667,3.686-13.353,0s-3.686-9.667,0-13.353
			s9.667-3.686,13.353,0C311.777,298.44,311.777,304.415,308.086,308.106z"/>
		<path d="M129.638,220.175l0.051-0.046c-0.154-0.046-0.307-0.077-0.461-0.123C129.367,220.052,129.495,220.134,129.638,220.175z"/>
		<path d="M215.373,121.062l3.825-3.825l-23.69-23.69L93.532,195.523l-4.567-4.567L190.94,88.98l-25.513-25.513L63.452,165.443
			l37.071,37.071l101.972-101.972l4.567,4.567L105.091,207.081l12.132,12.132l3.825-3.825c0.102,0.082,0.205,0.159,0.307,0.251
			l94.269-94.269C215.532,121.267,215.45,121.165,215.373,121.062z"/>
	</g>
</g>
<g>
</g>
<g>
</g>
<g>
</g>
<g>
</g>
<g>
</g>
<g>
</g>
<g>
</g>
<g>
</g>
<g>
</g>
<g>
</g>
<g>
</g>
<g>
</g>
<g>
</g>
<g>
</g>
<g>
</g>
</svg>
